{
  "source": "C:\\Users\\Peter\\Desktop\\stuff\\MIUN\\quantitative_research\\video_compression\\videos\\HEVC_CLASS_B\\Cactus_1920x1080_50.y4m",
  "output": "C:\\Users\\Peter\\Desktop\\stuff\\MIUN\\quantitative_research\\video_compression\\compressed_videos\\HEVC_CLASS_B\\vp9\\1.5\\Cactus_1920x1080_50_vp9.webm",
  "codec": "vp9",
  "ok": "Input #0, yuv4mpegpipe, from 'C:\\Users\\Peter\\Desktop\\stuff\\MIUN\\quantitative_research\\video_compression\\videos\\HEVC_CLASS_B\\Cactus_1920x1080_50.y4m':\n  Duration: 00:00:10.00, start: 0.000000, bitrate: 1244162 kb/s\n  Stream #0:0: Video: rawvideo (I420 / 0x30323449), yuv420p(progressive), 1920x1080, 50 fps, 50 tbr, 50 tbn\n[out#0/webm @ 0000022fa2eb9b00] Codec AVOption b:a (set bitrate (in bits/s)) has not been used for any stream. The most likely reason is either wrong type (e.g. a video option with no video streams) or that it is a private option of some decoder which was not actually used for any stream.\nStream mapping:\n  Stream #0:0 -> #0:0 (rawvideo (native) -> vp9 (libvpx-vp9))\nPress [q] to stop, [?] for help\n[libvpx-vp9 @ 0000022fa2ebbf40] v1.15.2-100-g40561f514\nOutput #0, webm, to 'C:\\Users\\Peter\\Desktop\\stuff\\MIUN\\quantitative_research\\video_compression\\compressed_videos\\HEVC_CLASS_B\\vp9\\1.5\\Cactus_1920x1080_50_vp9.webm':\n  Metadata:\n    encoder         : Lavf62.3.100\n  Stream #0:0: Video: vp9, yuv420p(tv, progressive), 1920x1080, q=2-31, 1500 kb/s, 50 fps, 1k tbn\n    Metadata:\n      encoder         : Lavc62.11.100 libvpx-vp9\n    Side data:\n      cpb: bitrate max/min/avg: 0/0/0 buffer size: 1500000 vbv_delay: N/A\nframe=    1 fps=0.0 q=36.0 size=       0KiB time=00:00:00.02 bitrate= 192.8kbits/s speed=0.0389x elapsed=0:00:00.51    \nframe=    9 fps=8.5 q=55.0 size=       0KiB time=00:00:00.18 bitrate=  21.4kbits/s speed=0.171x elapsed=0:00:01.05    \nframe=   14 fps=8.9 q=54.0 size=       0KiB time=00:00:00.28 bitrate=  13.8kbits/s speed=0.177x elapsed=0:00:01.57    \nframe=   20 fps=9.4 q=58.0 size=       0KiB time=00:00:00.40 bitrate=   9.6kbits/s speed=0.189x elapsed=0:00:02.11    \nframe=   25 fps=9.5 q=58.0 size=       0KiB time=00:00:00.50 bitrate=   7.7kbits/s speed=0.189x elapsed=0:00:02.63    \nframe=   31 fps=9.8 q=58.0 size=       0KiB time=00:00:00.62 bitrate=   6.2kbits/s speed=0.197x elapsed=0:00:03.15    \nframe=   36 fps=9.8 q=58.0 size=       0KiB time=00:00:00.72 bitrate=   5.4kbits/s speed=0.196x elapsed=0:00:03.66    \nframe=   42 fps= 10 q=59.0 size=       0KiB time=00:00:00.84 bitrate=   4.6kbits/s speed=0.201x elapsed=0:00:04.18    \nframe=   47 fps= 10 q=58.0 size=       0KiB time=00:00:00.94 bitrate=   4.1kbits/s speed= 0.2x elapsed=0:00:04.69    \nframe=   54 fps= 10 q=60.0 size=       0KiB time=00:00:01.08 bitrate=   3.6kbits/s speed=0.207x elapsed=0:00:05.22    \nframe=   59 fps= 10 q=58.0 size=       0KiB time=00:00:01.18 bitrate=   3.3kbits/s speed=0.205x elapsed=0:00:05.75    \nframe=   65 fps= 10 q=57.0 size=       0KiB time=00:00:01.30 bitrate=   3.0kbits/s speed=0.206x elapsed=0:00:06.30    \nframe=   70 fps= 10 q=57.0 size=       0KiB time=00:00:01.40 bitrate=   2.8kbits/s speed=0.205x elapsed=0:00:06.82    \nframe=   75 fps= 10 q=59.0 size=       0KiB time=00:00:01.50 bitrate=   2.6kbits/s speed=0.204x elapsed=0:00:07.36    \nframe=   78 fps=9.9 q=41.0 size=       0KiB time=00:00:01.56 bitrate=   2.5kbits/s speed=0.198x elapsed=0:00:07.87    \nframe=   83 fps=9.9 q=58.0 size=       0KiB time=00:00:01.64 bitrate=   2.4kbits/s speed=0.195x elapsed=0:00:08.42    \nframe=   86 fps=9.5 q=58.0 size=       0KiB time=00:00:01.72 bitrate=   2.2kbits/s speed=0.191x elapsed=0:00:09.01    \nframe=   89 fps=9.3 q=41.0 size=       0KiB time=00:00:01.76 bitrate=   2.2kbits/s speed=0.184x elapsed=0:00:09.54    \nframe=   93 fps=9.2 q=58.0 size=       0KiB time=00:00:01.86 bitrate=   2.1kbits/s speed=0.184x elapsed=0:00:10.12    \nframe=   97 fps=9.1 q=59.0 size=       0KiB time=00:00:01.94 bitrate=   2.0kbits/s speed=0.182x elapsed=0:00:10.65    \nframe=   99 fps=8.8 q=59.0 size=       0KiB time=00:00:01.98 bitrate=   1.9kbits/s speed=0.177x elapsed=0:00:11.20    \nframe=  103 fps=8.7 q=59.0 size=       0KiB time=00:00:02.06 bitrate=   1.9kbits/s speed=0.175x elapsed=0:00:11.77    \nframe=  107 fps=8.7 q=59.0 size=       0KiB time=00:00:02.14 bitrate=   1.8kbits/s speed=0.173x elapsed=0:00:12.36    \nframe=  110 fps=8.5 q=59.0 size=       0KiB time=00:00:02.20 bitrate=   1.8kbits/s speed=0.171x elapsed=0:00:12.89    \nframe=  114 fps=8.5 q=58.0 size=       0KiB time=00:00:02.28 bitrate=   1.7kbits/s speed=0.17x elapsed=0:00:13.42    \nframe=  118 fps=8.4 q=58.0 size=       0KiB time=00:00:02.36 bitrate=   1.6kbits/s speed=0.169x elapsed=0:00:13.98    \nframe=  121 fps=8.3 q=57.0 size=       0KiB time=00:00:02.42 bitrate=   1.6kbits/s speed=0.167x elapsed=0:00:14.51    \nframe=  125 fps=8.3 q=56.0 size=       0KiB time=00:00:02.50 bitrate=   1.5kbits/s speed=0.166x elapsed=0:00:15.07    \nframe=  128 fps=8.2 q=58.0 size=       0KiB time=00:00:02.56 bitrate=   1.5kbits/s speed=0.164x elapsed=0:00:15.60    \nframe=  131 fps=8.1 q=57.0 size=     256KiB time=00:00:02.62 bitrate= 800.4kbits/s speed=0.162x elapsed=0:00:16.14    \nframe=  136 fps=8.1 q=59.0 size=     256KiB time=00:00:02.72 bitrate= 771.0kbits/s speed=0.163x elapsed=0:00:16.69    \nframe=  139 fps=8.1 q=59.0 size=     256KiB time=00:00:02.78 bitrate= 754.4kbits/s speed=0.161x elapsed=0:00:17.23    \nframe=  145 fps=8.1 q=58.0 size=     256KiB time=00:00:02.90 bitrate= 723.2kbits/s speed=0.163x elapsed=0:00:17.80    \nframe=  150 fps=8.2 q=58.0 size=     256KiB time=00:00:03.00 bitrate= 699.1kbits/s speed=0.163x elapsed=0:00:18.35    \nframe=  156 fps=8.3 q=58.0 size=     256KiB time=00:00:03.12 bitrate= 672.2kbits/s speed=0.165x elapsed=0:00:18.88    \nframe=  161 fps=8.3 q=58.0 size=     256KiB time=00:00:03.22 bitrate= 651.3kbits/s speed=0.166x elapsed=0:00:19.40    \nframe=  167 fps=8.4 q=58.0 size=     256KiB time=00:00:03.32 bitrate= 631.7kbits/s speed=0.167x elapsed=0:00:19.93    \nframe=  172 fps=8.4 q=58.0 size=     256KiB time=00:00:03.44 bitrate= 609.6kbits/s speed=0.168x elapsed=0:00:20.45    \nframe=  177 fps=8.4 q=54.0 size=     256KiB time=00:00:03.54 bitrate= 592.4kbits/s speed=0.169x elapsed=0:00:20.98    \nframe=  183 fps=8.5 q=58.0 size=     256KiB time=00:00:03.66 bitrate= 573.0kbits/s speed=0.17x elapsed=0:00:21.50    \nframe=  189 fps=8.6 q=58.0 size=     256KiB time=00:00:03.78 bitrate= 554.8kbits/s speed=0.172x elapsed=0:00:22.02    \nframe=  194 fps=8.6 q=58.0 size=     256KiB time=00:00:03.88 bitrate= 540.5kbits/s speed=0.172x elapsed=0:00:22.54    \nframe=  200 fps=8.7 q=57.0 size=     256KiB time=00:00:04.00 bitrate= 524.3kbits/s speed=0.173x elapsed=0:00:23.08    \nframe=  205 fps=8.7 q=58.0 size=     256KiB time=00:00:04.10 bitrate= 511.5kbits/s speed=0.174x elapsed=0:00:23.61    \nframe=  212 fps=8.8 q=58.0 size=     256KiB time=00:00:04.24 bitrate= 494.6kbits/s speed=0.176x elapsed=0:00:24.12    \nframe=  216 fps=8.8 q=59.0 size=     256KiB time=00:00:04.32 bitrate= 485.5kbits/s speed=0.175x elapsed=0:00:24.63    \nframe=  223 fps=8.9 q=58.0 size=     256KiB time=00:00:04.46 bitrate= 470.2kbits/s speed=0.177x elapsed=0:00:25.15    \nframe=  228 fps=8.9 q=39.0 size=     256KiB time=00:00:04.56 bitrate= 459.9kbits/s speed=0.178x elapsed=0:00:25.67    \nframe=  235 fps=9.0 q=57.0 size=     256KiB time=00:00:04.70 bitrate= 446.2kbits/s speed=0.179x elapsed=0:00:26.20    \nframe=  240 fps=9.0 q=60.0 size=     256KiB time=00:00:04.80 bitrate= 436.9kbits/s speed=0.18x elapsed=0:00:26.72    \nframe=  246 fps=9.0 q=61.0 size=     256KiB time=00:00:04.92 bitrate= 426.3kbits/s speed=0.181x elapsed=0:00:27.25    \nframe=  251 fps=9.0 q=59.0 size=     256KiB time=00:00:05.02 bitrate= 417.8kbits/s speed=0.181x elapsed=0:00:27.77    \nframe=  256 fps=9.0 q=60.0 size=     256KiB time=00:00:05.12 bitrate= 409.6kbits/s speed=0.181x elapsed=0:00:28.30    \nframe=  262 fps=9.1 q=58.0 size=     768KiB time=00:00:05.24 bitrate=1200.7kbits/s speed=0.182x elapsed=0:00:28.82    \nframe=  267 fps=9.1 q=58.0 size=     768KiB time=00:00:05.34 bitrate=1178.2kbits/s speed=0.182x elapsed=0:00:29.34    \nframe=  275 fps=9.2 q=58.0 size=     768KiB time=00:00:05.50 bitrate=1143.9kbits/s speed=0.184x elapsed=0:00:29.86    \nframe=  280 fps=9.2 q=58.0 size=     768KiB time=00:00:05.60 bitrate=1123.5kbits/s speed=0.184x elapsed=0:00:30.39    \nframe=  286 fps=9.2 q=55.0 size=     768KiB time=00:00:05.72 bitrate=1099.9kbits/s speed=0.185x elapsed=0:00:30.93    \nframe=  291 fps=9.3 q=56.0 size=     768KiB time=00:00:05.82 bitrate=1081.0kbits/s speed=0.185x elapsed=0:00:31.44    \nframe=  298 fps=9.3 q=58.0 size=     768KiB time=00:00:05.96 bitrate=1055.6kbits/s speed=0.186x elapsed=0:00:31.96    \nframe=  303 fps=9.3 q=57.0 size=     768KiB time=00:00:06.06 bitrate=1038.2kbits/s speed=0.187x elapsed=0:00:32.49    \nframe=  310 fps=9.4 q=57.0 size=     768KiB time=00:00:06.18 bitrate=1018.0kbits/s speed=0.187x elapsed=0:00:33.03    \nframe=  315 fps=9.4 q=57.0 size=     768KiB time=00:00:06.30 bitrate= 998.6kbits/s speed=0.188x elapsed=0:00:33.57    \nframe=  321 fps=9.4 q=59.0 size=     768KiB time=00:00:06.42 bitrate= 980.0kbits/s speed=0.188x elapsed=0:00:34.09    \nframe=  326 fps=9.4 q=58.0 size=     768KiB time=00:00:06.52 bitrate= 964.9kbits/s speed=0.188x elapsed=0:00:34.65    \nframe=  332 fps=9.4 q=59.0 size=     768KiB time=00:00:06.64 bitrate= 947.5kbits/s speed=0.189x elapsed=0:00:35.16    \nframe=  338 fps=9.5 q=56.0 size=     768KiB time=00:00:06.76 bitrate= 930.7kbits/s speed=0.189x elapsed=0:00:35.70    \nframe=  344 fps=9.5 q=57.0 size=     768KiB time=00:00:06.88 bitrate= 914.5kbits/s speed=0.19x elapsed=0:00:36.25    \nframe=  349 fps=9.5 q=58.0 size=     768KiB time=00:00:06.98 bitrate= 901.4kbits/s speed=0.19x elapsed=0:00:36.78    \nframe=  355 fps=9.5 q=60.0 size=     768KiB time=00:00:07.10 bitrate= 886.1kbits/s speed=0.19x elapsed=0:00:37.33    \nframe=  360 fps=9.5 q=58.0 size=     768KiB time=00:00:07.20 bitrate= 873.8kbits/s speed=0.19x elapsed=0:00:37.91    \nframe=  366 fps=9.5 q=59.0 size=     768KiB time=00:00:07.32 bitrate= 859.5kbits/s speed=0.19x elapsed=0:00:38.47    \nframe=  372 fps=9.5 q=60.0 size=     768KiB time=00:00:07.44 bitrate= 845.6kbits/s speed=0.191x elapsed=0:00:39.00    \nframe=  377 fps=9.5 q=60.0 size=     768KiB time=00:00:07.54 bitrate= 834.4kbits/s speed=0.191x elapsed=0:00:39.53    \nframe=  384 fps=9.6 q=60.0 size=     768KiB time=00:00:07.68 bitrate= 819.2kbits/s speed=0.192x elapsed=0:00:40.06    \nframe=  388 fps=9.6 q=58.0 size=    1536KiB time=00:00:07.76 bitrate=1621.5kbits/s speed=0.191x elapsed=0:00:40.60    \nframe=  394 fps=9.6 q=57.0 size=    1536KiB time=00:00:07.88 bitrate=1596.8kbits/s speed=0.192x elapsed=0:00:41.12    \nframe=  399 fps=9.6 q=56.0 size=    1536KiB time=00:00:07.98 bitrate=1576.8kbits/s speed=0.192x elapsed=0:00:41.64    \nframe=  405 fps=9.6 q=59.0 size=    1536KiB time=00:00:08.10 bitrate=1553.4kbits/s speed=0.192x elapsed=0:00:42.15    \nframe=  410 fps=9.6 q=58.0 size=    1536KiB time=00:00:08.20 bitrate=1534.5kbits/s speed=0.192x elapsed=0:00:42.69    \nframe=  416 fps=9.6 q=59.0 size=    1536KiB time=00:00:08.32 bitrate=1512.4kbits/s speed=0.192x elapsed=0:00:43.23    \nframe=  422 fps=9.6 q=58.0 size=    1536KiB time=00:00:08.44 bitrate=1490.9kbits/s speed=0.193x elapsed=0:00:43.75    \nframe=  428 fps=9.7 q=59.0 size=    1536KiB time=00:00:08.56 bitrate=1470.0kbits/s speed=0.193x elapsed=0:00:44.29    \nframe=  432 fps=9.6 q=59.0 size=    1536KiB time=00:00:08.64 bitrate=1456.4kbits/s speed=0.193x elapsed=0:00:44.84    \nframe=  439 fps=9.7 q=59.0 size=    1536KiB time=00:00:08.76 bitrate=1436.4kbits/s speed=0.193x elapsed=0:00:45.36    \nframe=  443 fps=9.7 q=58.0 size=    1536KiB time=00:00:08.86 bitrate=1420.2kbits/s speed=0.193x elapsed=0:00:45.90    \nframe=  449 fps=9.7 q=57.0 size=    1536KiB time=00:00:08.98 bitrate=1401.2kbits/s speed=0.193x elapsed=0:00:46.42    \nframe=  453 fps=9.6 q=56.0 size=    1536KiB time=00:00:09.06 bitrate=1388.8kbits/s speed=0.193x elapsed=0:00:46.96    \nframe=  459 fps=9.7 q=59.0 size=    1536KiB time=00:00:09.18 bitrate=1370.7kbits/s speed=0.193x elapsed=0:00:47.46    \nframe=  464 fps=9.7 q=58.0 size=    1536KiB time=00:00:09.28 bitrate=1355.9kbits/s speed=0.193x elapsed=0:00:47.98    \nframe=  470 fps=9.7 q=59.0 size=    1536KiB time=00:00:09.40 bitrate=1338.6kbits/s speed=0.194x elapsed=0:00:48.52    \nframe=  475 fps=9.7 q=57.0 size=    1536KiB time=00:00:09.50 bitrate=1324.5kbits/s speed=0.194x elapsed=0:00:49.04    \nframe=  476 fps=9.6 q=58.0 size=    1536KiB time=00:00:09.52 bitrate=1321.7kbits/s speed=0.192x elapsed=0:00:49.56    \nframe=  476 fps=9.5 q=58.0 size=    1536KiB time=00:00:09.52 bitrate=1321.7kbits/s speed=0.19x elapsed=0:00:50.08    \nframe=  476 fps=9.4 q=58.0 size=    1536KiB time=00:00:09.52 bitrate=1321.7kbits/s speed=0.188x elapsed=0:00:50.58    \nframe=  476 fps=9.3 q=58.0 size=    1536KiB time=00:00:09.52 bitrate=1321.7kbits/s speed=0.186x elapsed=0:00:51.10    \n[out#0/webm @ 0000022fa2eb9b00] video:1998KiB audio:0KiB subtitle:0KiB other streams:0KiB global headers:0KiB muxing overhead: 0.202628%\nframe=  500 fps=9.8 q=58.0 Lsize=    2002KiB time=00:00:10.00 bitrate=1639.8kbits/s speed=0.195x elapsed=0:00:51.19    \n",
  "seconds": 51.31077194213867,
  "probe_out": {}
}